<svg width="20" height="26" viewBox="0 0 20 26" fill="none" xmlns="http://www.w3.org/2000/svg">
<path d="M20 22.9531C20 23.5141 19.5855 23.9688 19.0741 23.9688H18.1481V24.9844C18.1481 25.5453 17.7336 26 17.2222 26C16.7108 26 16.2963 25.5453 16.2963 24.9844V23.9688H15.3704C14.859 23.9688 14.4444 23.5141 14.4444 22.9531C14.4444 22.3922 14.859 21.9375 15.3704 21.9375H16.2963V20.9219C16.2963 20.3609 16.7108 19.9062 17.2222 19.9062C17.7336 19.9062 18.1481 20.3609 18.1481 20.9219V21.9375H19.0741C19.5855 21.9375 20 22.3922 20 22.9531ZM20 7.10938V16.8594C20 17.4203 19.5855 17.875 19.0741 17.875C18.5627 17.875 18.1481 17.4203 18.1481 16.8594V8.125H16.2963V11.1719C16.2963 11.7328 15.8818 12.1875 15.3704 12.1875C14.859 12.1875 14.4444 11.7328 14.4444 11.1719V8.125H5.55556V11.1719C5.55556 11.7328 5.14102 12.1875 4.62963 12.1875C4.11824 12.1875 3.7037 11.7328 3.7037 11.1719V8.125H1.85185V23.9688H11.6667C12.1781 23.9688 12.5926 24.4234 12.5926 24.9844C12.5926 25.5453 12.1781 26 11.6667 26H0.925926C0.414537 26 0 25.5453 0 24.9844V7.10938C0 6.54845 0.414537 6.09375 0.925926 6.09375H3.7475C4.11532 2.66718 6.77884 0 10 0C13.2212 0 15.8847 2.66718 16.2525 6.09375H19.0741C19.5855 6.09375 20 6.54845 20 7.10938ZM14.3824 6.09375C14.0287 3.79107 12.1983 2.03125 10 2.03125C7.80171 2.03125 5.97134 3.79107 5.61764 6.09375H14.3824Z" fill="#285C4C"/>
</svg>
