<svg width="346" height="68" viewBox="0 0 346 68" fill="none" xmlns="http://www.w3.org/2000/svg">
<path d="M32.864 67.92C26.592 67.92 20.96 66.384 15.968 63.312C11.04 60.24 7.168 56.08 4.352 50.832C1.6 45.52 0.224 39.696 0.224 33.36C0.224 27.28 1.44 21.776 3.872 16.848C6.304 11.856 9.76 7.92 14.24 5.04C18.784 2.16 24.032 0.719999 29.984 0.719999C35.488 0.719999 40.224 1.456 44.192 2.928C48.224 4.336 51.168 6.16 53.024 8.4C54.048 9.68 54.688 11.376 54.944 13.488C55.264 15.6 55.424 18.224 55.424 21.36H53.504C52.288 15.728 49.984 11.536 46.592 8.784C43.2 5.968 38.624 4.56 32.864 4.56C27.68 4.56 23.36 5.936 19.904 8.688C16.448 11.376 13.888 14.896 12.224 19.248C10.624 23.6 9.824 28.304 9.824 33.36C9.824 44.176 11.936 52.016 16.16 56.88C20.384 61.68 25.952 64.08 32.864 64.08C36.128 64.08 38.912 63.792 41.216 63.216C43.52 62.64 45.696 61.808 47.744 60.72V44.016C47.744 41.84 48.096 39.952 48.8 38.352C49.504 36.752 51.008 35.44 53.312 34.416C55.68 33.328 59.104 32.784 63.584 32.784V34.704C60.704 34.704 58.784 35.44 57.824 36.912C56.864 38.384 56.384 40.688 56.384 43.824V61.872C52.928 63.984 49.312 65.52 45.536 66.48C41.76 67.44 37.536 67.92 32.864 67.92ZM72.7738 32.4C72.7738 29.136 72.3258 26.736 71.4297 25.2C70.5338 23.6 68.7418 22.8 66.0538 22.8H65.0938V20.88H72.7738C75.2058 20.88 77.0298 21.232 78.2458 21.936C79.5258 22.576 80.4218 23.664 80.9338 25.2H81.4138C82.5658 23.728 84.1018 22.48 86.0218 21.456C88.0058 20.432 90.3098 19.92 92.9338 19.92C95.4938 19.92 97.4138 20.4 98.6938 21.36C99.7818 22.192 100.902 23.632 102.054 25.68L98.2138 28.56C97.5098 27.6 96.4858 26.896 95.1418 26.448C93.7978 25.936 92.2618 25.68 90.5338 25.68C88.6138 25.68 86.8538 26.128 85.2538 27.024C83.6538 27.856 82.3738 29.008 81.4138 30.48V66H72.7738V32.4ZM126.886 66.96C122.534 66.96 118.854 65.936 115.846 63.888C112.838 61.776 110.566 58.96 109.03 55.44C107.494 51.856 106.726 47.856 106.726 43.44C106.726 39.088 107.494 35.12 109.03 31.536C110.566 27.952 112.774 25.136 115.654 23.088C118.598 20.976 122.022 19.92 125.926 19.92C132.39 19.92 137.19 21.744 140.326 25.392C143.526 28.976 145.126 34.192 145.126 41.04L144.934 44.88H115.846C115.846 50.256 116.998 54.64 119.302 58.032C121.606 61.424 124.774 63.12 128.806 63.12C131.814 63.12 134.342 62.48 136.39 61.2C138.502 59.92 140.454 58 142.246 55.44L144.166 56.88C142.054 60.4 139.59 62.96 136.774 64.56C133.958 66.16 130.662 66.96 126.886 66.96ZM136.006 41.04C136.006 35.408 135.174 31.12 133.51 28.176C131.846 25.232 129.318 23.76 125.926 23.76C124.006 23.76 122.278 24.528 120.742 26.064C119.206 27.536 117.99 29.584 117.094 32.208C116.262 34.832 115.846 37.776 115.846 41.04H136.006ZM174.721 66.96C170.113 66.96 166.209 65.936 163.009 63.888C159.873 61.776 157.505 58.96 155.905 55.44C154.369 51.856 153.601 47.856 153.601 43.44C153.601 39.024 154.369 35.056 155.905 31.536C157.505 27.952 159.873 25.136 163.009 23.088C166.209 20.976 170.113 19.92 174.721 19.92C181.761 19.92 186.401 21.04 188.641 23.28C189.729 24.368 190.401 25.712 190.657 27.312C190.913 28.848 191.041 31.664 191.041 35.76H189.121C188.865 31.792 187.617 28.816 185.377 26.832C183.137 24.784 180.225 23.76 176.641 23.76C172.033 23.76 168.545 25.584 166.177 29.232C163.873 32.88 162.721 37.616 162.721 43.44C162.721 49.264 163.873 54 166.177 57.648C168.545 61.296 172.033 63.12 176.641 63.12C179.905 63.12 182.593 62.512 184.705 61.296C186.817 60.016 188.769 58.064 190.561 55.44L192.481 56.88C190.369 60.464 187.873 63.056 184.993 64.656C182.113 66.192 178.689 66.96 174.721 66.96ZM202.6 14.16C202.6 10.896 202.152 8.496 201.256 6.96C200.36 5.36 198.568 4.56 195.88 4.56H193.959V2.64H202.6C204.968 2.64 206.728 2.96 207.88 3.6C209.096 4.176 209.96 5.264 210.472 6.86399C210.984 8.464 211.24 10.896 211.24 14.16V24.72C212.584 23.376 214.312 22.256 216.424 21.36C218.6 20.4 221.032 19.92 223.72 19.92C228.52 19.92 232.424 21.2 235.432 23.76C238.504 26.32 240.04 30.8 240.04 37.2V66H231.4V37.2C231.4 32.72 230.376 29.456 228.328 27.408C226.344 25.296 223.848 24.24 220.84 24.24C217.448 24.24 214.248 25.936 211.24 29.328V66H202.6V14.16ZM254.852 32.4C254.852 29.136 254.404 26.736 253.508 25.2C252.612 23.6 250.82 22.8 248.132 22.8H246.212V20.88H254.852C257.22 20.88 259.012 21.2 260.228 21.84C261.508 22.48 262.436 23.44 263.012 24.72H263.492C264.836 23.376 266.564 22.256 268.676 21.36C270.852 20.4 273.284 19.92 275.972 19.92C280.772 19.92 284.676 21.2 287.684 23.76C290.756 26.32 292.292 30.8 292.292 37.2V66H283.652V37.2C283.652 32.72 282.628 29.456 280.58 27.408C278.596 25.296 276.1 24.24 273.092 24.24C269.7 24.24 266.5 25.936 263.492 29.328V66H254.852V32.4ZM324.159 66.96C319.807 66.96 316.031 65.936 312.831 63.888C309.631 61.776 307.199 58.928 305.535 55.344C303.871 51.76 303.039 47.792 303.039 43.44C303.039 39.088 303.871 35.12 305.535 31.536C307.199 27.952 309.631 25.136 312.831 23.088C316.031 20.976 319.807 19.92 324.159 19.92C328.511 19.92 332.287 20.976 335.487 23.088C338.687 25.136 341.119 27.952 342.783 31.536C344.447 35.12 345.279 39.088 345.279 43.44C345.279 47.792 344.447 51.76 342.783 55.344C341.119 58.928 338.687 61.776 335.487 63.888C332.287 65.936 328.511 66.96 324.159 66.96ZM324.159 63.12C326.527 63.12 328.607 62.256 330.399 60.528C332.255 58.8 333.663 56.432 334.623 53.424C335.647 50.416 336.159 47.088 336.159 43.44C336.159 39.792 335.647 36.464 334.623 33.456C333.663 30.448 332.255 28.08 330.399 26.352C328.607 24.624 326.527 23.76 324.159 23.76C321.791 23.76 319.679 24.624 317.823 26.352C316.031 28.08 314.623 30.448 313.599 33.456C312.639 36.464 312.159 39.792 312.159 43.44C312.159 47.088 312.639 50.416 313.599 53.424C314.623 56.432 316.031 58.8 317.823 60.528C319.679 62.256 321.791 63.12 324.159 63.12Z" fill="#285C4C"/>
</svg>
