<svg width="25" height="25" viewBox="0 0 25 25" fill="none" xmlns="http://www.w3.org/2000/svg">
<path d="M12.5 5.99992C11.2144 5.99992 9.95772 6.38114 8.8888 7.09538C7.81988 7.80961 6.98676 8.82478 6.49479 10.0125C6.00282 11.2002 5.87409 12.5072 6.1249 13.768C6.3757 15.0289 6.99477 16.1871 7.90381 17.0962C8.81285 18.0052 9.97104 18.6243 11.2319 18.8751C12.4928 19.1259 13.7997 18.9972 14.9874 18.5052C16.1752 18.0132 17.1903 17.1801 17.9046 16.1112C18.6188 15.0423 19 13.7855 19 12.5C19 10.776 18.3152 9.12273 17.0962 7.90374C15.8772 6.68475 14.2239 5.99992 12.5 5.99992ZM12.5 16.7202C11.6653 16.7202 10.8494 16.4727 10.1554 16.009C9.46134 15.5453 8.92042 14.8861 8.601 14.115C8.28158 13.3438 8.198 12.4953 8.36084 11.6766C8.52368 10.858 8.92562 10.106 9.51583 9.51577C10.106 8.92555 10.858 8.52361 11.6767 8.36077C12.4953 8.19793 13.3439 8.28151 14.115 8.60093C14.8862 8.92035 15.5453 9.46128 16.009 10.1553C16.4727 10.8493 16.7203 11.6653 16.7203 12.5C16.7204 13.0542 16.6114 13.6031 16.3993 14.1152C16.1873 14.6273 15.8765 15.0926 15.4845 15.4845C15.0926 15.8764 14.6273 16.1873 14.1152 16.3993C13.6031 16.6113 13.0543 16.7204 12.5 16.7202Z" fill="#285C4C"/>
<path d="M24.925 7.34625C24.9043 6.3094 24.7077 5.28359 24.3437 4.3125C24.0295 3.47842 23.5377 2.72262 22.9024 2.0975C22.2786 1.46175 21.5235 0.969876 20.6898 0.65625C19.7182 0.292332 18.6919 0.0962049 17.6546 0.0762501C16.3221 0.0150001 15.8958 0 12.5006 0C9.10545 0 8.67918 0.0137499 7.34662 0.0749999C6.30929 0.0955966 5.283 0.292139 4.31147 0.65625C3.478 0.970272 2.72296 1.46209 2.09886 2.0975C1.46161 2.72156 0.968794 3.47761 0.655033 4.3125C0.291469 5.28366 0.0953426 6.30947 0.075004 7.34625C0.0125009 8.67875 0 9.105 0 12.5C0 15.895 0.0125009 16.3212 0.075004 17.6537C0.0953667 18.6905 0.291493 19.7163 0.655033 20.6875C0.9685 21.5222 1.46088 22.2783 2.0976 22.9025C2.72237 23.5377 3.47777 24.0295 4.31147 24.3438C5.2831 24.7073 6.30938 24.9034 7.34662 24.9237C8.67918 24.985 9.10546 25 12.4994 25C15.8933 25 16.3208 24.9863 17.6534 24.925C18.6903 24.9043 19.7161 24.7077 20.6873 24.3438C21.5178 24.0226 22.2721 23.5315 22.9018 22.9019C23.5314 22.2723 24.0226 21.518 24.3437 20.6875C24.7081 19.7165 24.9047 18.6906 24.925 17.6537C24.985 16.32 25 15.895 25 12.5C25 9.105 24.985 8.67875 24.925 7.34625ZM22.6749 17.5513C22.6656 18.3438 22.5206 19.1289 22.2461 19.8725C22.0382 20.4117 21.7197 20.9013 21.311 21.31C20.9024 21.7186 20.4127 22.0371 19.8735 22.245C19.1301 22.5206 18.3449 22.666 17.5521 22.675C16.2333 22.735 15.8383 22.7475 12.4994 22.7475C9.16046 22.7475 8.76669 22.735 7.44912 22.675C6.65639 22.6659 5.87114 22.5205 5.12776 22.245C4.5849 22.0443 4.09375 21.7248 3.69018 21.31C3.27456 20.9071 2.95497 20.4158 2.75514 19.8725C2.47953 19.1292 2.33406 18.344 2.32512 17.5513C2.26511 16.2338 2.25261 15.8388 2.25261 12.5013C2.25261 9.16375 2.26511 8.7675 2.32512 7.44875C2.3351 6.65615 2.48054 5.87109 2.75514 5.1275C2.95581 4.58465 3.27528 4.09352 3.69018 3.69C4.09304 3.27429 4.5844 2.95471 5.12776 2.755C5.87112 2.47946 6.65638 2.334 7.44912 2.325C8.76669 2.2625 9.16296 2.25 12.4994 2.25C15.8358 2.25 16.2333 2.26375 17.5521 2.32375C18.3448 2.33376 19.1299 2.47919 19.8735 2.75375C20.4127 2.9616 20.9025 3.28009 21.3111 3.68872C21.7197 4.09734 22.0383 4.58704 22.2461 5.12625C22.5217 5.86957 22.6671 6.6548 22.6761 7.4475C22.7361 8.76625 22.7486 9.16 22.7486 12.4987C22.7486 15.8375 22.7361 16.2313 22.6761 17.55L22.6749 17.5513Z" fill="#285C4C"/>
</svg>
